/usr/bin/start-video-rec.sh: line 93: kill: (753) - No such process
ffmpeg version 2.8.17-0ubuntu0.1 Copyright (c) 2000-2020 the FFmpeg developers
  built with gcc 5.4.0 (Ubuntu 5.4.0-6ubuntu1~16.04.12) 20160609
  configuration: --prefix=/usr --extra-version=0ubuntu0.1 --build-suffix=-ffmpeg --toolchain=hardened --libdir=/usr/lib/x86_64-linux-gnu --incdir=/usr/include/x86_64-linux-gnu --cc=cc --cxx=g++ --enable-gpl --enable-shared --disable-stripping --disable-decoder=libopenjpeg --disable-decoder=libschroedinger --enable-avresample --enable-avisynth --enable-gnutls --enable-ladspa --enable-libass --enable-libbluray --enable-libbs2b --enable-libcaca --enable-libcdio --enable-libflite --enable-libfontconfig --enable-libfreetype --enable-libfribidi --enable-libgme --enable-libgsm --enable-libmodplug --enable-libmp3lame --enable-libopenjpeg --enable-libopus --enable-libpulse --enable-librtmp --enable-libschroedinger --enable-libshine --enable-libsnappy --enable-libsoxr --enable-libspeex --enable-libssh --enable-libtheora --enable-libtwolame --enable-libvorbis --enable-libvpx --enable-libwavpack --enable-libwebp --enable-libx265 --enable-libxvid --enable-libzvbi --enable-openal --enable-opengl --enable-x11grab --enable-libdc1394 --enable-libiec61883 --enable-libzmq --enable-frei0r --enable-libx264 --enable-libopencv
  libavutil      54. 31.100 / 54. 31.100
  libavcodec     56. 60.100 / 56. 60.100
  libavformat    56. 40.101 / 56. 40.101
  libavdevice    56.  4.100 / 56.  4.100
  libavfilter     5. 40.101 /  5. 40.101
  libavresample   2.  1.  0 /  2.  1.  0
  libswscale      3.  1.101 /  3.  1.101
  libswresample   1.  2.101 /  1.  2.101
  libpostproc    53.  3.100 / 53.  3.100
Input #0, matroska,webm, from '/home/seluser/videos/vid_chrome_or_firefox_40001.mkv':
  Metadata:
    ENCODER         : Lavf56.40.101
  Duration: 00:01:08.60, start: 0.000000, bitrate: 122 kb/s
    Stream #0:0: Video: h264 (Constrained Baseline), yuv420p, 1366x768, SAR 1:1 DAR 683:384, 10 fps, 10 tbr, 1k tbn, 20 tbc (default)
    Metadata:
      ENCODER         : Lavc56.60.100 libx264
      DURATION        : 00:01:08.600000000
[libx264 @ 0x22b2720] using SAR=1/1
[libx264 @ 0x22b2720] using cpu capabilities: MMX2 SSE2Fast SSSE3 SSE4.2 AVX FMA3 AVX2 LZCNT BMI2
[libx264 @ 0x22b2720] profile Constrained Baseline, level 3.2
[libx264 @ 0x22b2720] 264 - core 148 r2643 5c65704 - H.264/MPEG-4 AVC codec - Copyleft 2003-2015 - http://www.videolan.org/x264.html - options: cabac=0 ref=1 deblock=0:0:0 analyse=0:0 me=dia subme=0 psy=1 psy_rd=1.00:0.00 mixed_ref=0 me_range=16 chroma_me=1 trellis=0 8x8dct=0 cqm=0 deadzone=21,11 fast_pskip=1 chroma_qp_offset=0 threads=3 lookahead_threads=1 sliced_threads=0 nr=0 decimate=1 interlaced=0 bluray_compat=0 constrained_intra=0 bframes=0 weightp=0 keyint=250 keyint_min=10 scenecut=0 intra_refresh=0 rc=crf mbtree=0 crf=23.0 qcomp=0.60 qpmin=0 qpmax=69 qpstep=4 ip_ratio=1.40 aq=0
Output #0, mp4, to '/home/seluser/videos/vid_chrome_or_firefox_40001.mp4':
  Metadata:
    encoder         : Lavf56.40.101
    Stream #0:0: Video: h264 (libx264) ([33][0][0][0] / 0x0021), yuv420p, 1366x768 [SAR 1:1 DAR 683:384], q=-1--1, 10 fps, 10240 tbn, 10 tbc (default)
    Metadata:
      DURATION        : 00:01:08.600000000
      encoder         : Lavc56.60.100 libx264
Stream mapping:
  Stream #0:0 -> #0:0 (h264 (native) -> h264 (libx264))
Press [q] to stop, [?] for help
frame=   18 fps=0.0 q=11.0 size=      49kB time=00:00:01.40 bitrate= 287.7kbits/s    
frame=   57 fps= 54 q=9.0 size=      69kB time=00:00:05.30 bitrate= 106.6kbits/s    
frame=   89 fps= 57 q=9.0 size=     118kB time=00:00:08.50 bitrate= 113.3kbits/s    
frame=  106 fps= 48 q=9.0 size=     121kB time=00:00:10.20 bitrate=  96.9kbits/s    
frame=  117 fps= 43 q=15.0 size=     176kB time=00:00:11.30 bitrate= 127.7kbits/s    
frame=  135 fps= 42 q=16.0 size=     292kB time=00:00:13.10 bitrate= 182.8kbits/s    
frame=  153 fps= 41 q=9.0 size=     423kB time=00:00:14.90 bitrate= 232.7kbits/s    
frame=  167 fps= 39 q=10.0 size=     630kB time=00:00:16.30 bitrate= 316.7kbits/s    
frame=  183 fps= 38 q=18.0 size=     639kB time=00:00:17.90 bitrate= 292.3kbits/s    
frame=  203 fps= 38 q=9.0 size=     689kB time=00:00:19.90 bitrate= 283.7kbits/s    
frame=  225 fps= 39 q=9.0 size=     690kB time=00:00:22.10 bitrate= 255.9kbits/s    
frame=  240 fps= 38 q=9.0 size=     691kB time=00:00:23.60 bitrate= 239.9kbits/s    
frame=  248 fps= 36 q=9.0 size=     691kB time=00:00:24.40 bitrate= 232.1kbits/s    
frame=  262 fps= 35 q=9.0 size=     813kB time=00:00:25.80 bitrate= 258.0kbits/s    
frame=  279 fps= 35 q=9.0 size=     813kB time=00:00:27.50 bitrate= 242.2kbits/s    
frame=  289 fps= 34 q=9.0 size=     814kB time=00:00:28.50 bitrate= 233.9kbits/s    
frame=  305 fps= 34 q=9.0 size=     814kB time=00:00:30.10 bitrate= 221.6kbits/s    
frame=  318 fps= 34 q=9.0 size=     815kB time=00:00:31.40 bitrate= 212.5kbits/s    
frame=  333 fps= 33 q=9.0 size=     815kB time=00:00:32.90 bitrate= 203.0kbits/s    
frame=  349 fps= 33 q=10.0 size=     816kB time=00:00:34.50 bitrate= 193.7kbits/s    
frame=  359 fps= 32 q=10.0 size=     823kB time=00:00:35.50 bitrate= 189.9kbits/s    
frame=  376 fps= 32 q=9.0 size=     853kB time=00:00:37.20 bitrate= 187.8kbits/s    
frame=  399 fps= 33 q=9.0 size=     854kB time=00:00:39.50 bitrate= 177.0kbits/s    
frame=  420 fps= 33 q=9.0 size=     855kB time=00:00:41.60 bitrate= 168.3kbits/s    
frame=  432 fps= 33 q=9.0 size=     855kB time=00:00:42.80 bitrate= 163.6kbits/s    
frame=  450 fps= 33 q=9.0 size=     856kB time=00:00:44.60 bitrate= 157.1kbits/s    
frame=  476 fps= 33 q=9.0 size=     856kB time=00:00:47.20 bitrate= 148.6kbits/s    
frame=  496 fps= 34 q=9.0 size=     857kB time=00:00:49.20 bitrate= 142.7kbits/s    
frame=  516 fps= 34 q=9.0 size=     983kB time=00:00:51.20 bitrate= 157.3kbits/s    
frame=  537 fps= 34 q=9.0 size=     984kB time=00:00:53.30 bitrate= 151.3kbits/s    
frame=  560 fps= 34 q=9.0 size=     985kB time=00:00:55.60 bitrate= 145.1kbits/s    
frame=  573 fps= 34 q=9.0 size=     985kB time=00:00:56.90 bitrate= 141.8kbits/s    
frame=  591 fps= 34 q=9.0 size=     986kB time=00:00:58.70 bitrate= 137.6kbits/s    
frame=  611 fps= 34 q=9.0 size=     987kB time=00:01:00.70 bitrate= 133.1kbits/s    
frame=  623 fps= 34 q=9.0 size=     987kB time=00:01:01.90 bitrate= 130.6kbits/s    
frame=  650 fps= 34 q=9.0 size=     988kB time=00:01:04.60 bitrate= 125.3kbits/s    
frame=  675 fps= 35 q=10.0 size=    1017kB time=00:01:07.10 bitrate= 124.2kbits/s    
frame=  682 fps= 35 q=-1.0 Lsize=    1029kB time=00:01:08.20 bitrate= 123.6kbits/s    
video:1025kB audio:0kB subtitle:0kB other streams:0kB global headers:0kB muxing overhead: 0.339935%
[libx264 @ 0x22b2720] frame I:3     Avg QP:10.67  size: 88931
[libx264 @ 0x22b2720] frame P:679   Avg QP: 9.66  size:  1152
[libx264 @ 0x22b2720] mb I  I16..4: 100.0%  0.0%  0.0%
[libx264 @ 0x22b2720] mb P  I16..4:  1.1%  0.0%  0.0%  P16..4:  1.1%  0.0%  0.0%  0.0%  0.0%    skip:97.8%
[libx264 @ 0x22b2720] coded y,uvDC,uvAC intra: 13.7% 8.7% 8.2% inter: 0.4% 0.5% 0.3%
[libx264 @ 0x22b2720] i16 v,h,dc,p: 75% 23%  2%  1%
[libx264 @ 0x22b2720] i8c dc,h,v,p: 81% 16%  2%  1%
[libx264 @ 0x22b2720] kb/s:123.09
Exiting normally, received signal 15.
